<svg width="24" height="24" viewBox="0 0 24 24" fill="none" xmlns="http://www.w3.org/2000/svg">
<g clip-path="url(#clip0_35_20)">
<path d="M15.5 14H14.71L14.43 13.73C15.41 12.59 16 11.11 16 9.5C16 5.91 13.09 3 9.5 3C5.91 3 3 5.91 3 9.5C3 13.09 5.91 16 9.5 16C11.11 16 12.59 15.41 13.73 14.43L14 14.71V15.5L19 20.49L20.49 19L15.5 14ZM9.5 14C7.01 14 5 11.99 5 9.5C5 7.01 7.01 5 9.5 5C11.99 5 14 7.01 14 9.5C14 11.99 11.99 14 9.5 14Z" fill="current"/>
<g clip-path="url(#clip1_35_20)">
<path d="M9.22875 9.74792C9.45333 9.3425 9.885 9.10333 10.1358 8.74458C10.4013 8.36833 10.2525 7.66542 9.5 7.66542C9.00708 7.66542 8.765 8.03875 8.66292 8.34792L7.9075 8.03C8.11458 7.40875 8.6775 6.875 9.49708 6.875C10.1825 6.875 10.6521 7.18708 10.8913 7.57792C11.0954 7.91333 11.215 8.54042 10.9 9.00708C10.55 9.52333 10.2146 9.68083 10.0338 10.0133C9.96083 10.1475 9.93167 10.235 9.93167 10.6667H9.08875C9.08583 10.4392 9.05083 10.0688 9.22875 9.74792ZM10.0833 11.8333C10.0833 12.1542 9.82083 12.4167 9.5 12.4167C9.17917 12.4167 8.91667 12.1542 8.91667 11.8333C8.91667 11.5125 9.17917 11.25 9.5 11.25C9.82083 11.25 10.0833 11.5125 10.0833 11.8333Z" fill="current"/>
</g>
</g>
<defs>
<clipPath id="clip0_35_20">
<rect width="24" height="24" fill="none"/>
</clipPath>
<clipPath id="clip1_35_20">
<rect width="7" height="7" fill="none" transform="translate(6 6)"/>
</clipPath>
</defs>
</svg>
