<svg width="24" height="24" viewBox="0 0 24 24" fill="none" xmlns="http://www.w3.org/2000/svg">
<path d="M12 14C11.45 14 10.9793 13.804 10.588 13.412C10.196 13.0207 10 12.55 10 12C10 11.45 10.196 10.979 10.588 10.587C10.9793 10.1957 11.45 10 12 10C12.55 10 13.021 10.1957 13.413 10.587C13.8043 10.979 14 11.45 14 12C14 12.55 13.8043 13.0207 13.413 13.412C13.021 13.804 12.55 14 12 14ZM12 21C9.91667 21 8.075 20.375 6.475 19.125C4.875 17.875 3.81667 16.2667 3.3 14.3C3.21667 13.95 3.271 13.6457 3.463 13.387C3.65433 13.129 3.91667 13 4.25 13C4.48333 13 4.696 13.0833 4.888 13.25C5.07933 13.4167 5.20833 13.6167 5.275 13.85C5.65833 15.3667 6.475 16.604 7.725 17.562C8.975 18.5207 10.4 19 12 19C13.95 19 15.604 18.3207 16.962 16.962C18.3207 15.604 19 13.95 19 12C19 10.05 18.3207 8.39567 16.962 7.037C15.604 5.679 13.95 5 12 5C10.85 5 9.775 5.26667 8.775 5.8C7.775 6.33333 6.93333 7.06667 6.25 8H8C8.28333 8 8.521 8.09567 8.713 8.287C8.90433 8.479 9 8.71667 9 9C9 9.28333 8.90433 9.52067 8.713 9.712C8.521 9.904 8.28333 10 8 10H4C3.71667 10 3.47933 9.904 3.288 9.712C3.096 9.52067 3 9.28333 3 9V5C3 4.71667 3.096 4.479 3.288 4.287C3.47933 4.09567 3.71667 4 4 4C4.28333 4 4.521 4.09567 4.713 4.287C4.90433 4.479 5 4.71667 5 5V6.35C5.85 5.28333 6.88767 4.45833 8.113 3.875C9.33767 3.29167 10.6333 3 12 3C13.25 3 14.421 3.23733 15.513 3.712C16.6043 4.18733 17.5543 4.829 18.363 5.637C19.171 6.44567 19.8127 7.39567 20.288 8.487C20.7627 9.579 21 10.75 21 12C21 13.25 20.7627 14.4207 20.288 15.512C19.8127 16.604 19.171 17.554 18.363 18.362C17.5543 19.1707 16.6043 19.8127 15.513 20.288C14.421 20.7627 13.25 21 12 21Z" fill="current"/>
</svg>
