<svg width="24" height="24" viewBox="0 0 24 24" fill="none" xmlns="http://www.w3.org/2000/svg">
<path d="M21.1667 4.66667H18.6667C18.6667 4.22464 18.4911 3.80072 18.1785 3.48816C17.8659 3.17559 17.442 3 17 3H15.3333C14.8913 3 14.4674 3.17559 14.1548 3.48816C13.8423 3.80072 13.6667 4.22464 13.6667 4.66667H2.83333C2.61232 4.66667 2.40036 4.75446 2.24408 4.91074C2.0878 5.06702 2 5.27899 2 5.5C2 5.72101 2.0878 5.93298 2.24408 6.08926C2.40036 6.24554 2.61232 6.33333 2.83333 6.33333H13.6667C13.6667 6.77536 13.8423 7.19928 14.1548 7.51184C14.4674 7.82441 14.8913 8 15.3333 8H17C17.442 8 17.8659 7.82441 18.1785 7.51184C18.4911 7.19928 18.6667 6.77536 18.6667 6.33333H21.1667C21.3877 6.33333 21.5996 6.24554 21.7559 6.08926C21.9122 5.93298 22 5.72101 22 5.5C22 5.27899 21.9122 5.06702 21.7559 4.91074C21.5996 4.75446 21.3877 4.66667 21.1667 4.66667ZM17 6.33333H15.3333V4.66667H17V6.33333ZM21.1667 11.3333H10.3333C10.3333 10.8913 10.1577 10.4674 9.84518 10.1548C9.53262 9.84226 9.10869 9.66667 8.66667 9.66667H7C6.55797 9.66667 6.13405 9.84226 5.82149 10.1548C5.50893 10.4674 5.33333 10.8913 5.33333 11.3333H2.83333C2.61232 11.3333 2.40036 11.4211 2.24408 11.5774C2.0878 11.7337 2 11.9457 2 12.1667C2 12.3877 2.0878 12.5996 2.24408 12.7559C2.40036 12.9122 2.61232 13 2.83333 13H5.33333C5.33333 13.442 5.50893 13.866 5.82149 14.1785C6.13405 14.4911 6.55797 14.6667 7 14.6667H8.66667C9.10869 14.6667 9.53262 14.4911 9.84518 14.1785C10.1577 13.866 10.3333 13.442 10.3333 13H21.1667C21.3877 13 21.5996 12.9122 21.7559 12.7559C21.9122 12.5996 22 12.3877 22 12.1667C22 11.9457 21.9122 11.7337 21.7559 11.5774C21.5996 11.4211 21.3877 11.3333 21.1667 11.3333ZM8.66667 13H7V11.3333H8.66667V13ZM21.1667 18H15.3333C15.3333 17.558 15.1577 17.1341 14.8452 16.8215C14.5326 16.5089 14.1087 16.3333 13.6667 16.3333H12C11.558 16.3333 11.134 16.5089 10.8215 16.8215C10.5089 17.1341 10.3333 17.558 10.3333 18H2.83333C2.61232 18 2.40036 18.0878 2.24408 18.2441C2.0878 18.4004 2 18.6123 2 18.8333C2 19.0543 2.0878 19.2663 2.24408 19.4226C2.40036 19.5789 2.61232 19.6667 2.83333 19.6667H10.3333C10.3333 20.1087 10.5089 20.5326 10.8215 20.8452C11.134 21.1577 11.558 21.3333 12 21.3333H13.6667C14.1087 21.3333 14.5326 21.1577 14.8452 20.8452C15.1577 20.5326 15.3333 20.1087 15.3333 19.6667H21.1667C21.3877 19.6667 21.5996 19.5789 21.7559 19.4226C21.9122 19.2663 22 19.0543 22 18.8333C22 18.6123 21.9122 18.4004 21.7559 18.2441C21.5996 18.0878 21.3877 18 21.1667 18ZM13.6667 19.6667H12V18H13.6667V19.6667Z" fill="current"/>
</svg>
