<svg width="32" height="32" viewBox="0 0 32 32" fill="none" xmlns="http://www.w3.org/2000/svg">
<path d="M13.1724 24.1724C13.5533 24.5723 14.1863 24.5878 14.5862 24.2069C14.9861 23.826 15.0016 23.193 14.6207 22.7931L13.1724 24.1724ZM7 16.2414L6.27586 15.5517C5.90805 15.9379 5.90805 16.5448 6.27586 16.931L7 16.2414ZM14.6207 9.68966C15.0016 9.28972 14.9861 8.65675 14.5862 8.27586C14.1863 7.89498 13.5533 7.91041 13.1724 8.31034L14.6207 9.68966ZM25 17.2414C25.5523 17.2414 26 16.7937 26 16.2414C26 15.6891 25.5523 15.2414 25 15.2414V17.2414ZM14.6207 22.7931L7.72414 15.5517L6.27586 16.931L13.1724 24.1724L14.6207 22.7931ZM7.72414 16.931L14.6207 9.68966L13.1724 8.31034L6.27586 15.5517L7.72414 16.931ZM7 17.2414L25 17.2414V15.2414L7 15.2414L7 17.2414Z" fill="current"/>
</svg>
