<svg width="24" height="24" viewBox="0 0 24 24" fill="none" xmlns="http://www.w3.org/2000/svg">
<path d="M12.0009 7.71574C11.1738 7.71574 10.3652 7.96701 9.67745 8.43778C8.98971 8.90854 8.45368 9.57766 8.13715 10.3605C7.82061 11.1434 7.73779 12.0048 7.89916 12.8359C8.06053 13.6669 8.45884 14.4303 9.04371 15.0295C9.62859 15.6287 10.3738 16.0367 11.185 16.202C11.9963 16.3673 12.8371 16.2825 13.6013 15.9582C14.3655 15.6339 15.0187 15.0848 15.4782 14.3803C15.9377 13.6757 16.183 12.8474 16.183 12C16.1816 10.8642 15.7405 9.77536 14.9565 8.97222C14.1725 8.16908 13.1096 7.71722 12.0009 7.71574ZM12.0009 15.1667C11.3895 15.1667 10.7919 14.981 10.2836 14.633C9.77524 14.2851 9.37904 13.7905 9.14508 13.2119C8.91113 12.6332 8.84991 11.9965 8.96918 11.3823C9.08845 10.768 9.38285 10.2037 9.81516 9.76087C10.2475 9.31801 10.7982 9.01642 11.3979 8.89423C11.9975 8.77204 12.619 8.83475 13.1838 9.07443C13.7487 9.31411 14.2314 9.71999 14.5711 10.2407C14.9107 10.7615 15.092 11.3737 15.092 12C15.092 12.8399 14.7664 13.6453 14.1867 14.2392C13.607 14.8331 12.8207 15.1667 12.0009 15.1667ZM21.8198 10.1C21.8039 10.0222 21.7721 9.94865 21.7263 9.8844C21.6805 9.82016 21.6219 9.76666 21.5543 9.7275L18.7868 8.10878L18.7486 8.04265L18.7377 4.84713C18.7377 4.76641 18.7207 4.68665 18.6877 4.61334C18.6548 4.54002 18.6067 4.47489 18.5468 4.42242C17.5803 3.58519 16.4675 2.94331 15.2675 2.53081C15.1954 2.50597 15.1189 2.49686 15.0431 2.50408C14.9674 2.51129 14.8939 2.53468 14.8275 2.57273L12.0427 4.1635H11.9518L9.17435 2.57086C9.10761 2.5327 9.03379 2.50934 8.95768 2.50228C8.88156 2.49522 8.80484 2.50462 8.7325 2.52988C7.53262 2.94359 6.42039 3.58709 5.45501 4.42615C5.39492 4.47834 5.34657 4.54324 5.3133 4.61639C5.28003 4.68955 5.26262 4.76922 5.26227 4.84992L5.24772 8.04824C5.23499 8.06966 5.22226 8.09201 5.21045 8.11437L2.44662 9.7247C2.3787 9.76447 2.31992 9.81873 2.27427 9.88381C2.22862 9.9489 2.19717 10.0233 2.18206 10.1019C1.93931 11.3557 1.93931 12.6462 2.18206 13.9C2.19788 13.9779 2.22974 14.0514 2.27552 14.1157C2.3213 14.1799 2.37995 14.2334 2.44753 14.2726L5.21317 15.8866L5.25136 15.9528L5.26227 19.1483C5.26182 19.2299 5.27885 19.3107 5.31215 19.3849C5.34545 19.459 5.39421 19.5249 5.45501 19.5777C6.42156 20.4149 7.53432 21.0568 8.73432 21.4693C8.80646 21.4941 8.88288 21.5032 8.95866 21.496C9.03445 21.4888 9.10792 21.4654 9.17435 21.4273L11.9573 19.8366H12.0482L14.8266 21.4292C14.9078 21.4752 14.9991 21.4996 15.092 21.5C15.1517 21.5003 15.2111 21.4902 15.2675 21.4702C16.4658 21.056 17.5764 20.4125 18.5404 19.5739C18.6005 19.5217 18.6489 19.4568 18.6821 19.3837C18.7154 19.3105 18.7328 19.2309 18.7332 19.1502L18.7477 15.9518C18.7605 15.9304 18.7732 15.9081 18.785 15.8857L21.5506 14.2754C21.6187 14.2357 21.6777 14.1815 21.7235 14.1164C21.7693 14.0513 21.8009 13.9769 21.8161 13.8982C22.0601 12.6446 22.0613 11.3541 21.8198 10.1ZM20.797 13.4334L18.1213 14.9897C18.0346 15.0406 17.9629 15.1146 17.914 15.2039C17.8604 15.2971 17.804 15.4005 17.7449 15.4964C17.6911 15.5847 17.6625 15.6866 17.6622 15.7907L17.6477 18.8838C16.8954 19.5012 16.0504 19.9897 15.1457 20.3302L12.4555 18.7879C12.3741 18.741 12.2824 18.7163 12.1891 18.7161H12.1764C12.0636 18.7161 11.9491 18.7161 11.8364 18.7161C11.7388 18.7137 11.6424 18.7382 11.5572 18.7869L8.85978 20.3293C7.95386 19.9905 7.10765 19.5032 6.35416 18.8866L6.34325 15.7972C6.34296 15.6931 6.31431 15.5912 6.26052 15.5029C6.20233 15.4098 6.14505 15.3092 6.09141 15.2105C6.04304 15.1211 5.97166 15.047 5.88504 14.9962L3.2094 13.4343C3.05386 12.4851 3.05386 11.5159 3.2094 10.5667L5.88049 9.01034C5.96859 8.96003 6.04154 8.88594 6.09141 8.79613C6.14505 8.70299 6.20142 8.59961 6.26052 8.50368C6.31431 8.41538 6.34296 8.31345 6.34325 8.20937L6.3578 5.11629C7.10895 4.49923 7.95264 4.01078 8.85615 3.66988L11.5463 5.21222C11.6312 5.2618 11.7278 5.28631 11.8254 5.28301C11.9382 5.28301 12.0527 5.28301 12.1655 5.28301C12.263 5.28541 12.3594 5.26096 12.4446 5.21222L15.1402 3.66988C16.0461 4.00868 16.8923 4.49592 17.6458 5.11257L17.6567 8.20192C17.657 8.306 17.6857 8.40793 17.7395 8.49623C17.7977 8.58937 17.8549 8.68995 17.9086 8.78868C17.957 8.87807 18.0283 8.95217 18.115 9.00289L20.7924 10.5657C20.9489 11.5148 20.9498 12.484 20.7951 13.4334H20.797Z" fill="current"/>
</svg>
