<svg width="16" height="16" viewBox="0 0 16 16" fill="none" xmlns="http://www.w3.org/2000/svg">
<path d="M12.331 4.37608C12.5263 4.18082 12.5263 3.86423 12.331 3.66897C12.1358 3.47371 11.8192 3.47371 11.6239 3.66897L12.331 4.37608ZM3.66897 11.6239C3.47371 11.8192 3.47371 12.1358 3.66897 12.331C3.86423 12.5263 4.18082 12.5263 4.37608 12.331L3.66897 11.6239ZM11.6239 12.331C11.8192 12.5263 12.1358 12.5263 12.331 12.331C12.5263 12.1358 12.5263 11.8192 12.331 11.6239L11.6239 12.331ZM4.37608 3.66897C4.18082 3.47371 3.86423 3.47371 3.66897 3.66897C3.47371 3.86423 3.47371 4.18082 3.66897 4.37608L4.37608 3.66897ZM11.8891 11.8891C9.7412 14.037 6.2588 14.037 4.11091 11.8891L3.40381 12.5962C5.94221 15.1346 10.0578 15.1346 12.5962 12.5962L11.8891 11.8891ZM4.11091 11.8891C1.96303 9.7412 1.96303 6.2588 4.11091 4.11091L3.40381 3.40381C0.865398 5.94221 0.865398 10.0578 3.40381 12.5962L4.11091 11.8891ZM4.11091 4.11091C6.2588 1.96303 9.7412 1.96303 11.8891 4.11091L12.5962 3.40381C10.0578 0.865398 5.94221 0.865398 3.40381 3.40381L4.11091 4.11091ZM11.8891 4.11091C14.037 6.2588 14.037 9.7412 11.8891 11.8891L12.5962 12.5962C15.1346 10.0578 15.1346 5.94221 12.5962 3.40381L11.8891 4.11091ZM9.23744 9.23744C8.55402 9.92085 7.44598 9.92085 6.76256 9.23744L6.05546 9.94454C7.1294 11.0185 8.8706 11.0185 9.94454 9.94454L9.23744 9.23744ZM6.76256 9.23744C6.07915 8.55402 6.07915 7.44598 6.76256 6.76256L6.05546 6.05546C4.98151 7.1294 4.98151 8.8706 6.05546 9.94454L6.76256 9.23744ZM6.76256 6.76256C7.44598 6.07915 8.55402 6.07915 9.23744 6.76256L9.94454 6.05546C8.8706 4.98151 7.1294 4.98151 6.05546 6.05546L6.76256 6.76256ZM9.23744 6.76256C9.92085 7.44598 9.92085 8.55402 9.23744 9.23744L9.94454 9.94454C11.0185 8.8706 11.0185 7.1294 9.94454 6.05546L9.23744 6.76256ZM9.94454 6.76256L12.331 4.37608L11.6239 3.66897L9.23744 6.05546L9.94454 6.76256ZM4.37608 12.331L6.76256 9.94454L6.05546 9.23744L3.66897 11.6239L4.37608 12.331ZM9.23744 9.94454L11.6239 12.331L12.331 11.6239L9.94454 9.23744L9.23744 9.94454ZM3.66897 4.37608L6.05546 6.76256L6.76256 6.05546L4.37608 3.66897L3.66897 4.37608Z" fill="white"/>
</svg>
