<svg width="24" height="24" viewBox="0 0 24 24" fill="none" xmlns="http://www.w3.org/2000/svg">
<path d="M13.6205 22H9.87045C9.62045 22 9.40379 21.9167 9.22045 21.75C9.03712 21.5833 8.92879 21.375 8.89545 21.125L8.59545 18.8C8.37879 18.7167 8.17479 18.6167 7.98345 18.5C7.79145 18.3833 7.60379 18.2583 7.42045 18.125L5.24545 19.025C5.01212 19.1083 4.77879 19.1167 4.54545 19.05C4.31212 18.9833 4.12879 18.8417 3.99545 18.625L2.14545 15.4C2.01212 15.1833 1.97045 14.95 2.02045 14.7C2.07045 14.45 2.19545 14.25 2.39545 14.1L4.27045 12.675C4.25379 12.5583 4.24545 12.4457 4.24545 12.337V11.662C4.24545 11.554 4.25379 11.4417 4.27045 11.325L2.39545 9.9C2.19545 9.75 2.07045 9.55 2.02045 9.3C1.97045 9.05 2.01212 8.81667 2.14545 8.6L3.99545 5.375C4.11212 5.14167 4.29112 4.99567 4.53245 4.937C4.77445 4.879 5.01212 4.89167 5.24545 4.975L7.42045 5.875C7.60379 5.74167 7.79545 5.61667 7.99545 5.5C8.19545 5.38333 8.39545 5.28333 8.59545 5.2L8.89545 2.875C8.92879 2.625 9.03712 2.41667 9.22045 2.25C9.40379 2.08333 9.62045 2 9.87045 2H13.6205C13.8705 2 14.0871 2.08333 14.2705 2.25C14.4538 2.41667 14.5621 2.625 14.5955 2.875L14.8955 5.2C15.1121 5.28333 15.3165 5.38333 15.5085 5.5C15.6998 5.61667 15.8871 5.74167 16.0705 5.875L18.2455 4.975C18.4788 4.89167 18.7121 4.88333 18.9455 4.95C19.1788 5.01667 19.3621 5.15833 19.4955 5.375L21.3455 8.6C21.4788 8.81667 21.5205 9.05 21.4705 9.3C21.4205 9.55 21.2955 9.75 21.0955 9.9L19.2205 11.325C19.2371 11.4417 19.2455 11.554 19.2455 11.662V12.337C19.2455 12.4457 19.2288 12.5583 19.1955 12.675L21.0705 14.1C21.2705 14.25 21.3955 14.45 21.4455 14.7C21.4955 14.95 21.4538 15.1833 21.3205 15.4L19.4705 18.6C19.3371 18.8167 19.1498 18.9627 18.9085 19.038C18.6665 19.1127 18.4288 19.1083 18.1955 19.025L16.0705 18.125C15.8871 18.2583 15.6955 18.3833 15.4955 18.5C15.2955 18.6167 15.0955 18.7167 14.8955 18.8L14.5955 21.125C14.5621 21.375 14.4538 21.5833 14.2705 21.75C14.0871 21.9167 13.8705 22 13.6205 22ZM11.7955 15.5C12.7621 15.5 13.5871 15.1583 14.2705 14.475C14.9538 13.7917 15.2955 12.9667 15.2955 12C15.2955 11.0333 14.9538 10.2083 14.2705 9.525C13.5871 8.84167 12.7621 8.5 11.7955 8.5C10.8121 8.5 9.98279 8.84167 9.30745 9.525C8.63279 10.2083 8.29545 11.0333 8.29545 12C8.29545 12.9667 8.63279 13.7917 9.30745 14.475C9.98279 15.1583 10.8121 15.5 11.7955 15.5Z" fill="current"/>
</svg>
