<svg width="134" height="35" viewBox="0 0 134 35" fill="none" xmlns="http://www.w3.org/2000/svg">
<path d="M10.6136 35L0.318182 0.0909081H10.8864L15.6591 21.5682H15.9318L21.5909 0.0909081H29.9091L35.5682 21.6364H35.8409L40.6136 0.0909081H51.1818L40.8864 35H31.8182L25.8864 15.5H25.6136L19.6818 35H10.6136ZM63.7273 0.0909081V35H54.25V0.0909081H63.7273ZM66.7869 0.0909081H77.3551L84.1733 14.2727H84.446L91.2642 0.0909081H101.832L89.0142 24.0227V35H79.6051V24.0227L66.7869 0.0909081ZM104.922 35V0.0909081H120.058C122.717 0.0909081 124.95 0.448863 126.757 1.16477C128.575 1.88068 129.945 2.89204 130.865 4.19886C131.797 5.50568 132.263 7.04545 132.263 8.81818C132.263 10.1023 131.979 11.2727 131.411 12.3295C130.854 13.3864 130.07 14.2727 129.058 14.9886C128.047 15.6932 126.865 16.1818 125.513 16.4545V16.7955C127.013 16.8523 128.376 17.233 129.604 17.9375C130.831 18.6307 131.808 19.5909 132.536 20.8182C133.263 22.0341 133.626 23.4659 133.626 25.1136C133.626 27.0227 133.126 28.7216 132.126 30.2102C131.138 31.6989 129.729 32.8693 127.899 33.7216C126.07 34.5739 123.888 35 121.354 35H104.922ZM114.399 27.4318H118.831C120.422 27.4318 121.615 27.1364 122.411 26.5455C123.206 25.9432 123.604 25.0568 123.604 23.8864C123.604 23.0682 123.416 22.375 123.041 21.8068C122.666 21.2386 122.132 20.8068 121.439 20.5114C120.757 20.2159 119.933 20.0682 118.967 20.0682H114.399V27.4318ZM114.399 14.2045H118.286C119.115 14.2045 119.848 14.0739 120.484 13.8125C121.121 13.5511 121.615 13.1761 121.967 12.6875C122.331 12.1875 122.513 11.5795 122.513 10.8636C122.513 9.78409 122.126 8.96023 121.354 8.39205C120.581 7.8125 119.604 7.52273 118.422 7.52273H114.399V14.2045Z" fill="#00871E"/>
</svg>
