<svg width="24" height="24" viewBox="0 0 24 24" fill="none" xmlns="http://www.w3.org/2000/svg">
<path d="M17.2133 12.5689C17.2043 10.9302 17.954 9.69336 19.4716 8.78248C18.6225 7.58137 17.3398 6.92054 15.6461 6.79105C14.0428 6.66603 12.2904 7.71533 11.649 7.71533C10.9716 7.71533 9.41791 6.8357 8.19846 6.8357C5.67827 6.87589 3 8.82267 3 12.7832C3 13.9531 3.21679 15.1616 3.65037 16.4089C4.22848 18.0476 6.31509 22.0662 8.49203 21.9992C9.63018 21.9724 10.4341 21.1999 11.9155 21.1999C13.3518 21.1999 14.097 21.9992 15.3661 21.9992C17.5611 21.9679 19.449 18.3155 20 16.6723C17.0553 15.3015 17.2133 12.6537 17.2133 12.5689ZM14.657 5.2372C15.89 3.7905 15.7771 2.4733 15.741 2C14.6525 2.06251 13.3924 2.73228 12.6743 3.55832C11.8839 4.44241 11.4187 5.53636 11.5181 6.76872C12.6969 6.85803 13.7718 6.2597 14.657 5.2372Z" fill="white"/>
</svg>
