<svg width="24" height="24" viewBox="0 0 24 24" fill="none" xmlns="http://www.w3.org/2000/svg">
<path d="M21.0208 12.2047C21.0208 11.5665 20.9636 10.9529 20.8572 10.3638H12.3809V13.8451H17.2245C17.0158 14.9701 16.3818 15.9233 15.4286 16.5615V18.8197H18.3372C20.039 17.2528 21.0208 14.9456 21.0208 12.2047Z" fill="#4285F4"/>
<path d="M12.3801 20.9999C14.8101 20.9999 16.8474 20.194 18.3365 18.8195L15.4278 16.5613C14.6219 17.1013 13.591 17.4204 12.3801 17.4204C10.036 17.4204 8.05194 15.8372 7.34421 13.71H4.3374V16.0418C5.81831 18.9831 8.86194 20.9999 12.3801 20.9999Z" fill="#34A853"/>
<path d="M7.34494 13.7101C7.16494 13.1701 7.06267 12.5932 7.06267 12.0001C7.06267 11.4069 7.16494 10.8301 7.34494 10.2901V7.95825H4.33813C3.70813 9.21241 3.3803 10.5966 3.38086 12.0001C3.38086 13.4523 3.72859 14.8269 4.33813 16.0419L7.34494 13.7101Z" fill="#FBBC05"/>
<path d="M12.3801 6.57954C13.7015 6.57954 14.8878 7.03363 15.8206 7.92544L18.4019 5.34408C16.8433 3.89182 14.806 3 12.3801 3C8.86194 3 5.81831 5.01681 4.3374 7.95817L7.34421 10.29C8.05194 8.16271 10.036 6.57954 12.3801 6.57954Z" fill="#EA4335"/>
</svg>
