<svg width="24" height="24" viewBox="0 0 24 24" fill="none" xmlns="http://www.w3.org/2000/svg">
<path d="M20.7603 17.3133L13.6048 4.91568C13.4404 4.63686 13.206 4.4057 12.9246 4.24509C12.6432 4.08449 12.3246 4 12.0004 4C11.6762 4 11.3577 4.08449 11.0763 4.24509C10.7948 4.4057 10.5604 4.63686 10.396 4.91568L3.24051 17.3133C3.083 17.5823 3 17.8883 3 18.1999C3 18.5114 3.083 18.8174 3.24051 19.0864C3.40266 19.3672 3.63683 19.5998 3.91895 19.7604C4.20107 19.9209 4.52095 20.0036 4.84571 19.9999H19.1551C19.4796 20.0033 19.7991 19.9205 20.0809 19.7599C20.3627 19.5994 20.5967 19.3669 20.7587 19.0864C20.9164 18.8175 20.9997 18.5116 21 18.2001C21.0003 17.8885 20.9176 17.5825 20.7603 17.3133ZM19.9086 18.5958C19.8322 18.727 19.722 18.8355 19.5896 18.9101C19.4572 18.9847 19.3072 19.0227 19.1551 19.0203H4.84571C4.69364 19.0227 4.54366 18.9847 4.41122 18.9101C4.27878 18.8355 4.16866 18.727 4.0922 18.5958C4.02067 18.4758 3.98292 18.3387 3.98292 18.199C3.98292 18.0594 4.02067 17.9223 4.0922 17.8023L11.2469 5.40466C11.3251 5.27502 11.4356 5.16775 11.5676 5.09329C11.6997 5.01883 11.8487 4.9797 12.0004 4.9797C12.1521 4.9797 12.3012 5.01883 12.4332 5.09329C12.5652 5.16775 12.6757 5.27502 12.7539 5.40466L19.9094 17.8023C19.9808 17.9224 20.0184 18.0595 20.0183 18.1992C20.0182 18.3388 19.9803 18.4758 19.9086 18.5958ZM11.5095 13.6325V10.3672C11.5095 10.2372 11.5612 10.1127 11.6533 10.0208C11.7454 9.92896 11.8702 9.87735 12.0004 9.87735C12.1306 9.87735 12.2555 9.92896 12.3475 10.0208C12.4396 10.1127 12.4913 10.2372 12.4913 10.3672V13.6325C12.4913 13.7624 12.4396 13.887 12.3475 13.9788C12.2555 14.0707 12.1306 14.1223 12.0004 14.1223C11.8702 14.1223 11.7454 14.0707 11.6533 13.9788C11.5612 13.887 11.5095 13.7624 11.5095 13.6325ZM12.8186 16.5713C12.8186 16.7327 12.7706 16.8906 12.6807 17.0248C12.5908 17.1591 12.463 17.2637 12.3135 17.3255C12.164 17.3873 11.9995 17.4034 11.8408 17.3719C11.6821 17.3404 11.5363 17.2627 11.4219 17.1485C11.3075 17.0344 11.2296 16.8889 11.198 16.7305C11.1664 16.5722 11.1826 16.4081 11.2445 16.2589C11.3065 16.1097 11.4113 15.9822 11.5459 15.8925C11.6804 15.8028 11.8386 15.7549 12.0004 15.7549C12.2174 15.7549 12.4255 15.841 12.5789 15.994C12.7324 16.1471 12.8186 16.3548 12.8186 16.5713Z" fill="current"/>
</svg>
